<svg xmlns="http://www.w3.org/2000/svg" viewBox="0 0 1200 640"
     font-family="-apple-system, 'Inter', 'Segoe UI', system-ui, 'Helvetica Neue', Arial, sans-serif">

  <rect width="1200" height="640" fill="#FFFFFF"/>

  <text x="60" y="42" font-size="22" font-weight="600" fill="#111827">DP collapses membership inference attacks to random</text>
  <text x="60" y="66" font-size="13" font-weight="400" fill="#6B7280">Attacker AUC across four LoRA fine-tunes of Qwen2.5-0.5B. 0.5 = random guessing.</text>

  <g transform="translate(880, 80)" font-size="13" fill="#374151">
    <rect x="0" y="0" width="12" height="12" fill="#D55444"/>
    <text x="18" y="10">No DP</text>
    <rect x="90" y="0" width="12" height="12" fill="#2E5266"/>
    <text x="108" y="10">DP (&#963;=0.5)</text>
  </g>

  <g stroke="#F3F4F6" stroke-width="1">
    <line x1="110" y1="110" x2="1150" y2="110"/>
    <line x1="110" y1="220" x2="1150" y2="220"/>
    <line x1="110" y1="440" x2="1150" y2="440"/>
  </g>

  <line x1="110" y1="330" x2="1150" y2="330" stroke="#9CA3AF" stroke-width="1" stroke-dasharray="3 4"/>
  <line x1="110" y1="550" x2="1150" y2="550" stroke="#D1D5DB" stroke-width="1"/>

  <g font-size="12" fill="#6B7280" text-anchor="end">
    <text x="98" y="114">1.00</text>
    <text x="98" y="224">0.75</text>
    <text x="98" y="334">0.50</text>
    <text x="98" y="444">0.25</text>
    <text x="98" y="554">0.00</text>
  </g>

  <g>
    <rect x="148" y="146.52" width="85" height="403.48" fill="#D55444"/>
    <rect x="247" y="326.92" width="85" height="223.08" fill="#2E5266"/>
    <rect x="408" y="259.16" width="85" height="290.84" fill="#D55444"/>
    <rect x="507" y="326.92" width="85" height="223.08" fill="#2E5266"/>
    <rect x="668" y="142.56" width="85" height="407.44" fill="#D55444"/>
    <rect x="767" y="330.00" width="85" height="220.00" fill="#2E5266"/>
    <rect x="928" y="171.16" width="85" height="378.84" fill="#D55444"/>
    <rect x="1027" y="313.28" width="85" height="236.72" fill="#2E5266"/>
  </g>

  <g font-size="13" font-weight="500" fill="#1F2937" text-anchor="middle">
    <text x="190.5" y="138">0.92</text>
    <text x="289.5" y="319">0.51</text>
    <text x="450.5" y="251">0.66</text>
    <text x="549.5" y="319">0.51</text>
    <text x="710.5" y="134">0.93</text>
    <text x="809.5" y="322">0.50</text>
    <text x="970.5" y="163">0.86</text>
    <text x="1069.5" y="305">0.54</text>
  </g>

  <g font-size="14" fill="#1F2937" text-anchor="middle">
    <text x="240" y="578">Canary</text>
    <text x="500" y="578">SST-2</text>
    <text x="760" y="578">IMDB</text>
    <text x="1020" y="578">PubMedQA</text>
  </g>
</svg>
